<svg id="Group_262" data-name="Group 262" xmlns="http://www.w3.org/2000/svg" xmlns:xlink="http://www.w3.org/1999/xlink" width="402.396" height="87.022" viewBox="0 0 402.396 87.022">
  <defs>
    <clipPath id="clip-path">
      <rect id="Rectangle_87" data-name="Rectangle 87" width="402.396" height="87.022" fill="none"/>
    </clipPath>
  </defs>
  <g id="Group_261" data-name="Group 261" clip-path="url(#clip-path)">
    <path id="Path_942" data-name="Path 942" d="M530.663,1.03H511.877a.337.337,0,0,0-.337.337V35.3a.337.337,0,0,0,.337.337h6.852a.337.337,0,0,0,.337-.337V21.794h10.315a.337.337,0,0,0,.337-.337V15.771a.337.337,0,0,0-.337-.337H519.066V7.414h11.6A.337.337,0,0,0,531,7.077V1.367a.337.337,0,0,0-.337-.337" transform="translate(-280.147 -0.564)" fill="#fff"/>
    <path id="Path_943" data-name="Path 943" d="M459.544,1.03H440.758a.337.337,0,0,0-.337.337V35.3a.337.337,0,0,0,.337.337h6.852a.337.337,0,0,0,.337-.337V21.794h10.314a.337.337,0,0,0,.337-.337V15.771a.337.337,0,0,0-.337-.337H447.947V7.414h11.6a.337.337,0,0,0,.337-.337V1.367a.337.337,0,0,0-.337-.337" transform="translate(-241.199 -0.564)" fill="#fff"/>
    <path id="Path_944" data-name="Path 944" d="M571.184,1.03h-6.852a.337.337,0,0,0-.337.337V35.3a.337.337,0,0,0,.337.337h6.852a.337.337,0,0,0,.337-.337V1.367a.337.337,0,0,0-.337-.337" transform="translate(-308.874 -0.564)" fill="#fff"/>
    <path id="Path_945" data-name="Path 945" d="M386.424,0a11.39,11.39,0,0,0-9.256,4.05c-2.2,2.667-3.317,6.412-3.317,11.133v5.806c.031,4.552,1.172,8.151,3.393,10.7a11.652,11.652,0,0,0,9.227,3.857,11.525,11.525,0,0,0,9.217-3.894c2.2-2.568,3.309-6.209,3.309-10.823V15.018c-.032-4.706-1.172-8.42-3.389-11.042A11.443,11.443,0,0,0,386.424,0m.047,29.157a4.155,4.155,0,0,1-3.817-1.952c-.847-1.344-1.276-3.491-1.276-6.38V14.791c.03-2.862.468-5.012,1.3-6.389a4.485,4.485,0,0,1,7.508.076c.835,1.433,1.259,3.673,1.259,6.659v5.895c-.016,2.812-.445,4.906-1.277,6.219a4.042,4.042,0,0,1-3.7,1.906" transform="translate(-204.741 0)" fill="#fff"/>
    <path id="Path_946" data-name="Path 946" d="M777.782,8.119a3.813,3.813,0,0,1,3.6-1.758c1.682,0,2.841.413,3.447,1.227.63.849.981,2.45,1.04,4.761a.338.338,0,0,0,.337.328h6.875a.337.337,0,0,0,.336-.36c-.268-3.93-1.4-6.995-3.364-9.109S785.163,0,781.385,0a11.228,11.228,0,0,0-9.068,3.908c-2.156,2.576-3.249,6.275-3.249,11v5.71c0,4.734,1.056,8.441,3.14,11.015,2.1,2.6,5.157,3.912,9.084,3.912,3.727,0,6.661-1.036,8.721-3.08s3.188-5.075,3.362-9.012a.339.339,0,0,0-.337-.352h-6.852a.339.339,0,0,0-.338.323c-.089,2.217-.457,3.755-1.094,4.573-.613.788-1.778,1.187-3.463,1.187a3.809,3.809,0,0,1-3.592-1.723c-.718-1.2-1.082-3.479-1.082-6.773v-6.4c.046-2.863.437-4.936,1.164-6.16" transform="translate(-421.184 0)" fill="#fff"/>
    <path id="Path_947" data-name="Path 947" d="M736.9,29.278H724.6V20.956h10.338a.337.337,0,0,0,.337-.337V15.1a.337.337,0,0,0-.337-.337H724.6V7.415h12.249a.338.338,0,0,0,.338-.337V1.367a.337.337,0,0,0-.338-.337H717.414a.337.337,0,0,0-.337.337V35.3a.337.337,0,0,0,.337.337H736.9a.337.337,0,0,0,.337-.337V29.615a.337.337,0,0,0-.337-.337" transform="translate(-392.711 -0.564)" fill="#fff"/>
    <path id="Path_948" data-name="Path 948" d="M679.9,1.03H656.382a.337.337,0,0,0-.337.337v5.71a.337.337,0,0,0,.337.337H664.3V35.3a.337.337,0,0,0,.337.337h6.875a.337.337,0,0,0,.337-.337V7.414H679.9a.337.337,0,0,0,.337-.337V1.367a.337.337,0,0,0-.337-.337" transform="translate(-359.286 -0.564)" fill="#fff"/>
    <path id="Path_949" data-name="Path 949" d="M856.372,1.03h-6.829a.337.337,0,0,0-.337.337V14.758h-9.44V1.367a.337.337,0,0,0-.337-.337h-6.852a.337.337,0,0,0-.338.337V35.3a.337.337,0,0,0,.338.337h6.852a.337.337,0,0,0,.337-.337V21.119h9.44V35.3a.337.337,0,0,0,.337.337h6.829a.337.337,0,0,0,.337-.337V1.367a.337.337,0,0,0-.337-.337" transform="translate(-455.78 -0.564)" fill="#fff"/>
    <path id="Path_950" data-name="Path 950" d="M617.532,1.03H610.7a.337.337,0,0,0-.337.337V22.081l-9.4-20.853a.337.337,0,0,0-.308-.2h-6.852a.337.337,0,0,0-.337.337V35.3a.337.337,0,0,0,.337.337h6.852A.337.337,0,0,0,601,35.3V14.613l9.377,20.827a.339.339,0,0,0,.308.2h6.852a.337.337,0,0,0,.337-.337V1.367a.337.337,0,0,0-.337-.337" transform="translate(-325.016 -0.564)" fill="#fff"/>
    <path id="Path_951" data-name="Path 951" d="M7.475,35.641h6.852a.337.337,0,0,0,.338-.337V21.8H24.978a.337.337,0,0,0,.337-.337V15.773a.337.337,0,0,0-.337-.337H14.665V7.416h11.6a.337.337,0,0,0,.337-.337V1.369a.337.337,0,0,0-.337-.337H7.475a.337.337,0,0,0-.337.337V35.3a.337.337,0,0,0,.337.337" transform="translate(-3.909 -0.565)" fill="#fff"/>
    <path id="Path_952" data-name="Path 952" d="M241.969,35.641h6.853a.337.337,0,0,0,.337-.337V23.241H252l5.018,12.191a.336.336,0,0,0,.312.209h7.365a.337.337,0,0,0,.337-.337v-.327a.344.344,0,0,0-.028-.133L259.178,21.23c3.2-1.882,4.827-5.111,4.827-9.606,0-3.358-.98-5.993-2.914-7.831s-4.685-2.761-8.192-2.761H241.969a.337.337,0,0,0-.337.337V35.3a.337.337,0,0,0,.337.337m7.19-18.784V7.416h3.671c2.455,0,3.649,1.559,3.649,4.767a5.625,5.625,0,0,1-.958,3.445,3.262,3.262,0,0,1-2.807,1.229Z" transform="translate(-132.331 -0.565)" fill="#fff"/>
    <path id="Path_953" data-name="Path 953" d="M133.2,35.3V7.416h8.054a.337.337,0,0,0,.337-.337V1.369a.337.337,0,0,0-.337-.337H117.74a.337.337,0,0,0-.337.337v5.71a.337.337,0,0,0,.337.337h7.914V35.3a.337.337,0,0,0,.337.337h6.876a.337.337,0,0,0,.337-.337" transform="translate(-64.296 -0.565)" fill="#fff"/>
    <path id="Path_954" data-name="Path 954" d="M321.43,29.28H309.136V20.958h10.337a.337.337,0,0,0,.337-.337V15.1a.337.337,0,0,0-.337-.337H309.136V7.417h12.248a.337.337,0,0,0,.337-.337V1.369a.337.337,0,0,0-.337-.337H301.946a.337.337,0,0,0-.337.337V35.3a.337.337,0,0,0,.337.337H321.43a.337.337,0,0,0,.337-.337V29.617a.337.337,0,0,0-.337-.337" transform="translate(-165.178 -0.565)" fill="#fff"/>
    <path id="Path_955" data-name="Path 955" d="M202.106,1.369a.337.337,0,0,0-.337-.337h-6.853a.337.337,0,0,0-.337.337V24.836a6.691,6.691,0,0,1-.865,3.821c-.536.721-1.573,1.088-3.085,1.088a3.709,3.709,0,0,1-3.111-1.1,6.727,6.727,0,0,1-.864-3.922V1.369a.337.337,0,0,0-.337-.337h-6.9a.337.337,0,0,0-.337.337V24.7c0,3.666,1,6.516,2.979,8.467s4.857,2.94,8.569,2.94c3.649,0,6.5-.977,8.462-2.9s2.983-4.734,3.015-8.34Z" transform="translate(-98.074 -0.565)" fill="#fff"/>
    <path id="Path_956" data-name="Path 956" d="M78.314,33.2c1.969-1.929,2.983-4.734,3.016-8.34V1.369a.337.337,0,0,0-.337-.337H74.14a.337.337,0,0,0-.337.337V24.836a6.7,6.7,0,0,1-.866,3.821c-.536.722-1.573,1.088-3.085,1.088a3.709,3.709,0,0,1-3.11-1.1,6.724,6.724,0,0,1-.864-3.922V1.369a.337.337,0,0,0-.337-.337h-6.9a.337.337,0,0,0-.337.337V24.7c0,3.667,1,6.516,2.979,8.468s4.858,2.94,8.569,2.94c3.649,0,6.5-.977,8.462-2.9" transform="translate(-31.93 -0.565)" fill="#fff"/>
    <path id="Path_968" data-name="Path 968" d="M0,0H402.4V7.894H0Z" transform="translate(0 47.755)" fill="#de72ad"/>
    <path id="Path_957" data-name="Path 957" d="M94.45,164.13a9.4,9.4,0,0,1-8.542,5.414,9.644,9.644,0,0,1-9.641-9.5,9.593,9.593,0,0,1,18.282-3.821h-3.9a6.379,6.379,0,0,0-4.946-2.4,6.257,6.257,0,0,0-6.018,6.271,6.371,6.371,0,0,0,6.143,6.32,6.108,6.108,0,0,0,4.646-2.278Z" transform="translate(-41.769 -82.522)" fill="#fff"/>
    <path id="Path_958" data-name="Path 958" d="M125.29,166.486h1.724c.674,0,3.446,0,3.446-2.375,0-.736-.375-2.426-3.372-2.426h-1.8Zm0-7.936h1.125c.8,0,2.947,0,2.947-1.96,0-1.078-.7-1.96-2.648-1.96H125.29Zm-3.422-7.055h3.647c2.048,0,4.1,0,5.694,1.4a4.718,4.718,0,0,1,1.574,3.38,3.683,3.683,0,0,1-2.072,3.454,4.384,4.384,0,0,1,3.172,4.507,5.086,5.086,0,0,1-2.3,4.311,9.12,9.12,0,0,1-4.771,1.078h-4.945Z" transform="translate(-66.742 -82.966)" fill="#fff"/>
    <rect id="Rectangle_85" data-name="Rectangle 85" width="1.849" height="18.128" transform="translate(70.009 68.527)" fill="#fff"/>
    <path id="Path_959" data-name="Path 959" d="M180.607,151.493v15.041h-.049l-10.315-15.041h-2.5v18.128h1.848V153.675h.05l10.964,15.947h1.849V151.493Z" transform="translate(-91.866 -82.966)" fill="#fff"/>
    <path id="Path_960" data-name="Path 960" d="M208.07,164.166a3.786,3.786,0,0,0,7.568.147c0-2.792-2.872-3.5-4.12-3.87-1.674-.49-4.8-1.176-4.8-4.777a5.164,5.164,0,0,1,10.314.048h-1.848a3.3,3.3,0,0,0-3.272-3.282,3.2,3.2,0,0,0-3.347,3.161c0,2.2,1.973,2.72,4.4,3.4,4.5,1.176,4.519,4.631,4.519,5.218v.024a5.413,5.413,0,0,1-5.569,5.316c-2.4,0-5.619-1.4-5.694-5.389Z" transform="translate(-112.939 -82.581)" fill="#fff"/>
    <rect id="Rectangle_86" data-name="Rectangle 86" width="1.849" height="18.128" transform="translate(107.318 68.527)" fill="#fff"/>
    <path id="Path_961" data-name="Path 961" d="M267.97,160.908c-.424,5.389-5.221,8.646-9.765,8.646-5.52,0-9.916-4.384-9.916-9.381a9.66,9.66,0,0,1,9.891-9.382c4.895,0,8.017,3.307,8.741,5.144h-2.148a7.717,7.717,0,0,0-6.568-3.5,7.749,7.749,0,1,0,.075,15.482,7.808,7.808,0,0,0,7.468-5.364H255.431v-1.642Z" transform="translate(-135.976 -82.581)" fill="#fff"/>
    <path id="Path_962" data-name="Path 962" d="M310.382,151.493v7.986h-9.565v-7.986h-1.849v18.128h1.849v-8.5h9.565v8.5h1.849V151.493Z" transform="translate(-163.731 -82.966)" fill="#fff"/>
    <path id="Path_963" data-name="Path 963" d="M333.362,151.493v1.642h4.246v16.486h1.848V153.135h4.22v-1.642Z" transform="translate(-182.567 -82.966)" fill="#fff"/>
    <path id="Path_964" data-name="Path 964" d="M360.162,164.166a3.786,3.786,0,0,0,7.568.147c0-2.792-2.872-3.5-4.12-3.87-1.673-.49-4.8-1.176-4.8-4.777a5.165,5.165,0,0,1,10.315.048H367.28a3.3,3.3,0,0,0-3.272-3.282,3.2,3.2,0,0,0-3.346,3.161c0,2.2,1.974,2.72,4.4,3.4,4.5,1.176,4.52,4.631,4.52,5.218v.024a5.414,5.414,0,0,1-5.57,5.316c-2.4,0-5.619-1.4-5.694-5.389Z" transform="translate(-196.233 -82.581)" fill="#fff"/>
    <path id="Path_965" data-name="Path 965" d="M54.491,159.21v-4.557a3.38,3.38,0,0,0-3.413-3.347H46.192v7.9Z" transform="translate(-25.297 -82.863)" fill="#fff"/>
    <path id="Path_966" data-name="Path 966" d="M54.491,178.236v-5.055h-8.3v8.4h4.886a3.38,3.38,0,0,0,3.413-3.347" transform="translate(-25.297 -94.843)" fill="#fff"/>
    <path id="Path_967" data-name="Path 967" d="M14.3,161.2v-2h8.087v-7.893H9.034a3.38,3.38,0,0,0-3.413,3.347v11.6A3.38,3.38,0,0,0,9.034,169.6H22.388v-8.4Z" transform="translate(-3.078 -82.863)" fill="#fff"/>
  </g>
</svg>
