<svg xmlns="http://www.w3.org/2000/svg" width="77.637" height="76.283" viewBox="0 0 77.637 76.283">
  <g id="Group_171" data-name="Group 171" transform="translate(0 0)">
    <g id="Group_170" data-name="Group 170" transform="translate(0)">
      <path id="Path_960" data-name="Path 960" d="M1872.3,3694.062l-3.336,3.278a3.669,3.669,0,0,1-5.125,0l-8.719-8.567a3.545,3.545,0,0,1-1.061-2.518h0a3.485,3.485,0,0,1,1.061-2.518l3.336-3.278Z" transform="translate(-1839.862 -3636.06)" fill="#4cabcc"/>
      <path id="Path_961" data-name="Path 961" d="M1673.319,1994.773l-7.733,7.6c1.046.343,2.077.671,3.123,1,.38.119.774.239,1.152.357q-1.228,1.7-2.411,3.442c-1.592-.491-3.184-1.028-4.776-1.534l-.455-.149a3.707,3.707,0,0,1-2.047-1.132,2.058,2.058,0,0,1-.273-1.52,2.843,2.843,0,0,1,1.259-1.847c.364-.313.7-.611,1.047-.938l9.84-9.4a2.08,2.08,0,0,1,1.243-.03l5.58,1.579c-.106.119-.212.238-.3.357-.849.983-1.668,1.982-2.487,2.995l-2.744-.775Z" transform="translate(-1648.739 -1972.364)" fill="#4cabcc" fill-rule="evenodd"/>
      <path id="Path_962" data-name="Path 962" d="M3632.931,3840.384l7.733-7.6-.789-2.7c1.152-.909,2.29-1.817,3.412-2.756l1.607,5.483a1.982,1.982,0,0,1-.03,1.222l-9.568,9.669q-.5.491-.955,1.028a2.9,2.9,0,0,1-1.88,1.237,2.23,2.23,0,0,1-1.547-.269,3.669,3.669,0,0,1-1.153-2.011l-.151-.447c-.44-1.3-.88-2.607-1.3-3.9-.091-.268-.167-.521-.258-.79,1.167-.775,2.335-1.564,3.5-2.354.2.641.409,1.282.622,1.922.242.759.5,1.52.758,2.279Z" transform="translate(-3585.834 -3780.654)" fill="#4cabcc" fill-rule="evenodd"/>
      <path id="Path_963" data-name="Path 963" d="M970.688,4320.045a2.077,2.077,0,0,1,2.881,0,1.989,1.989,0,0,1,0,2.831l-6.626,6.511a2.076,2.076,0,0,1-2.881,0,1.989,1.989,0,0,1,0-2.831Zm-2.108-4.2a2.019,2.019,0,0,1,2.108,1.922,1.992,1.992,0,0,1-1.956,2.056l-11.19.417a2.02,2.02,0,0,1-2.108-1.923,1.99,1.99,0,0,1,1.956-2.055Zm5.2,8.955a2.026,2.026,0,0,1,4.048.148l-.424,10.995a2.026,2.026,0,0,1-4.048-.148Z" transform="translate(-955.433 -4261.582)" fill="#4cabcc" fill-rule="evenodd"/>
      <path id="Path_964" data-name="Path 964" d="M2111.4,1168.98l8.718,8.567a1.171,1.171,0,0,0,1.516.1c19.758-12.515,30.189-23.212,35.421-31.794l-22.138-21.752c-5.519,3.263-11.9,8.552-19.074,16.925q-3.208,3.732-6.611,8.328-3.275,4.425-6.687,9.625a1.11,1.11,0,0,0,.152,1.415h0l8.718,8.567Zm23.548-15.45a7.087,7.087,0,0,1-5.974-1.818,6.808,6.808,0,0,1-1.85-5.87,10.594,10.594,0,0,1,3.184-6.124,10.967,10.967,0,0,1,6.232-3.129,7.088,7.088,0,0,1,5.974,1.818,6.807,6.807,0,0,1,1.85,5.87,10.6,10.6,0,0,1-3.184,6.124A10.97,10.97,0,0,1,2134.946,1153.53Z" transform="translate(-2084.24 -1119.381)" fill="#4cabcc" fill-rule="evenodd"/>
      <path id="Path_965" data-name="Path 965" d="M4296.177,823.292,4317.4,844.15c7.489-13.915,1.106-21.648,1.076-21.693a.964.964,0,0,0-.258-.238C4317.632,821.772,4309.793,816.229,4296.177,823.292Z" transform="translate(-4243.408 -819.73)" fill="#4cabcc" fill-rule="evenodd"/>
    </g>
  </g>
</svg>
