<svg xmlns="http://www.w3.org/2000/svg" width="70.222" height="61.333" viewBox="0 0 70.222 61.333">
  <path id="Icon_awesome-file-signature" data-name="Icon awesome-file-signature" d="M26.6,50.808a1.355,1.355,0,0,0-1.24-.781,1.334,1.334,0,0,0-1.222.741L23.2,52.606a1.964,1.964,0,0,1-3.594-.25L17.555,46.31l-1.293,3.819a5.256,5.256,0,0,1-5,3.537H9.753a1.917,1.917,0,1,1,0-3.833h1.511a1.365,1.365,0,0,0,1.3-.918l2.218-6.545a2.944,2.944,0,0,1,5.553,0l1.692,4.988a5.526,5.526,0,0,1,8.046,1.7,1.385,1.385,0,0,0,1.141.75V39.967l15.6-15.224V19.166H30.234a2.909,2.909,0,0,1-2.926-2.875V0H2.926A2.894,2.894,0,0,0,0,2.875V58.458a2.894,2.894,0,0,0,2.926,2.875H43.889a2.894,2.894,0,0,0,2.926-2.875V53.666l-15.6-.013A5.243,5.243,0,0,1,26.6,50.808ZM46.815,14.6a2.841,2.841,0,0,0-.853-2.024L34.026.839A2.95,2.95,0,0,0,31.953,0H31.21V15.333h15.6Zm-11.7,26.96v8.27h8.411l19.711-19.5L54.957,22.2,35.111,41.562Zm34.2-21.518-3.885-3.818a3.144,3.144,0,0,0-4.39,0l-3.322,3.264,8.275,8.131,3.322-3.264A3.012,3.012,0,0,0,69.312,20.045Z" fill="#4cabcc"/>
</svg>
