<svg xmlns="http://www.w3.org/2000/svg" width="365.627" height="84.57" viewBox="0 0 365.627 84.57">
  <g id="Group_168" data-name="Group 168" transform="translate(1146 425)">
    <g id="Group_163" data-name="Group 163" transform="translate(-1145.46 -425)">
      <path id="Path_26" data-name="Path 26" d="M506.629-289.56h-6.806a.171.171,0,0,0-.171.171v13.511h-9.738v-13.511a.171.171,0,0,0-.171-.171h-6.83a.171.171,0,0,0-.171.171v33.822a.171.171,0,0,0,.171.171h6.83a.171.171,0,0,0,.171-.171v-14.3h9.738v14.3a.171.171,0,0,0,.171.171h6.806a.171.171,0,0,0,.171-.171v-33.822A.171.171,0,0,0,506.629-289.56Z" transform="translate(-265.393 290.024)" fill="#fff"/>
      <path id="Path_27" data-name="Path 27" d="M437.392-289.56H418.669a.171.171,0,0,0-.171.171v33.822a.171.171,0,0,0,.171.171h6.83a.171.171,0,0,0,.171-.171v-13.627h10.444a.171.171,0,0,0,.171-.171v-5.667a.171.171,0,0,0-.171-.171H425.671v-8.322h11.722a.171.171,0,0,0,.171-.171v-5.692A.171.171,0,0,0,437.392-289.56Z" transform="translate(-230.512 290.024)" fill="#fff"/>
      <path id="Path_28" data-name="Path 28" d="M367.278-290.576a11.194,11.194,0,0,0-9.1,3.977c-2.169,2.629-3.268,6.327-3.268,10.992v5.785c.031,4.5,1.154,8.048,3.34,10.553a11.46,11.46,0,0,0,9.073,3.787,11.331,11.331,0,0,0,9.061-3.823c2.162-2.528,3.259-6.122,3.259-10.681v-5.784h0c-.032-4.651-1.155-8.318-3.34-10.9A11.244,11.244,0,0,0,367.278-290.576ZM362.084-276a13.1,13.1,0,0,1,1.323-6.452,4.173,4.173,0,0,1,3.872-2.066,4.16,4.16,0,0,1,3.894,2.145c.848,1.452,1.277,3.714,1.277,6.72v5.876c-.015,2.833-.452,4.948-1.3,6.286a4.235,4.235,0,0,1-3.827,1.976,4.3,4.3,0,0,1-3.944-2.023c-.861-1.367-1.3-3.536-1.3-6.448Z" transform="translate(-195.987 290.576)" fill="#fff"/>
      <path id="Path_29" data-name="Path 29" d="M677.344-261.406H665.53v-27.983a.171.171,0,0,0-.171-.171h-6.829a.171.171,0,0,0-.171.171v33.822a.171.171,0,0,0,.171.171h18.815a.172.172,0,0,0,.171-.171v-5.668A.172.172,0,0,0,677.344-261.406Z" transform="translate(-360.748 290.024)" fill="#fff"/>
      <path id="Path_30" data-name="Path 30" d="M610.026-289.44a.171.171,0,0,0-.163-.12h-6.249a.171.171,0,0,0-.163.121l-10.569,33.821a.17.17,0,0,0,.025.153.171.171,0,0,0,.138.07h7.224a.171.171,0,0,0,.166-.128l1.778-6.794h9.05l1.778,6.794a.171.171,0,0,0,.165.128H620.5a.171.171,0,0,0,.138-.07.172.172,0,0,0,.025-.153Zm-6.236,21.089,2.938-11.209,2.936,11.209Z" transform="translate(-325.192 290.024)" fill="#fff"/>
      <path id="Path_31" data-name="Path 31" d="M717.5-289.56H694.061a.171.171,0,0,0-.171.171v5.692a.171.171,0,0,0,.171.171h8.051v27.959a.171.171,0,0,0,.171.171h6.853a.171.171,0,0,0,.171-.171v-27.959H717.5a.171.171,0,0,0,.171-.171v-5.692A.171.171,0,0,0,717.5-289.56Z" transform="translate(-380.041 290.024)" fill="#fff"/>
      <path id="Path_32" data-name="Path 32" d="M777.147-289.56h-6.806a.171.171,0,0,0-.171.171v13.511h-9.739v-13.511a.171.171,0,0,0-.171-.171H753.43a.171.171,0,0,0-.171.171v33.822a.171.171,0,0,0,.171.171h6.829a.171.171,0,0,0,.171-.171v-14.3h9.739v14.3a.171.171,0,0,0,.171.171h6.806a.171.171,0,0,0,.171-.171v-33.822A.171.171,0,0,0,777.147-289.56Z" transform="translate(-412.276 290.024)" fill="#fff"/>
      <path id="Path_33" data-name="Path 33" d="M565.716-261.406H553.3v-8.624h10.468a.171.171,0,0,0,.171-.171v-5.505a.171.171,0,0,0-.171-.171H553.3v-7.648H565.67a.171.171,0,0,0,.171-.171v-5.692a.171.171,0,0,0-.171-.171H546.3a.171.171,0,0,0-.171.171v33.822a.171.171,0,0,0,.171.171h19.419a.171.171,0,0,0,.171-.171v-5.668A.171.171,0,0,0,565.716-261.406Z" transform="translate(-299.809 290.024)" fill="#fff"/>
      <path id="Path_34" data-name="Path 34" d="M287.426-255.281h19.419a.171.171,0,0,0,.171-.171v-5.667a.171.171,0,0,0-.171-.171H294.427v-8.624h10.467a.171.171,0,0,0,.171-.171v-5.505a.171.171,0,0,0-.171-.171H294.427v-7.648H306.8a.171.171,0,0,0,.171-.171v-5.692a.171.171,0,0,0-.171-.171H287.426a.171.171,0,0,0-.171.171v33.822A.171.171,0,0,0,287.426-255.281Z" transform="translate(-159.252 289.962)" fill="#fff"/>
      <path id="Path_35" data-name="Path 35" d="M230.342-255.281h6.83a.171.171,0,0,0,.171-.171v-12.186h3.105l5.043,12.251a.172.172,0,0,0,.159.106h7.341a.171.171,0,0,0,.171-.171v-.325a.172.172,0,0,0-.014-.068l-5.863-13.7c3.222-1.834,4.855-5.031,4.855-9.505,0-3.3-.959-5.885-2.853-7.685s-4.6-2.707-8.051-2.707h-10.9a.171.171,0,0,0-.171.171v33.822A.171.171,0,0,0,230.342-255.281Zm7-18.392v-9.738h3.823c2.558,0,3.8,1.608,3.8,4.916a5.768,5.768,0,0,1-.987,3.532,3.444,3.444,0,0,1-2.929,1.291Z" transform="translate(-128.257 289.962)" fill="#fff"/>
      <path id="Path_36" data-name="Path 36" d="M127.208-255.453v-27.959H135.4a.171.171,0,0,0,.171-.171v-5.692a.171.171,0,0,0-.171-.171H111.96a.171.171,0,0,0-.171.171v5.692a.171.171,0,0,0,.171.171h8.052v27.959a.171.171,0,0,0,.171.171h6.853A.171.171,0,0,0,127.208-255.453Z" transform="translate(-63.98 289.962)" fill="#fff"/>
      <path id="Path_37" data-name="Path 37" d="M193.169-265.859v-23.416a.171.171,0,0,0-.171-.171h-6.829a.171.171,0,0,0-.171.171v23.391a6.823,6.823,0,0,1-.9,3.907c-.567.763-1.645,1.15-3.207,1.15a3.844,3.844,0,0,1-3.232-1.163,6.848,6.848,0,0,1-.894-4.008v-23.276a.171.171,0,0,0-.171-.171H170.72a.171.171,0,0,0-.171.171v23.253c0,3.608.982,6.409,2.92,8.322s4.771,2.883,8.425,2.883c3.591,0,6.39-.958,8.319-2.847S193.137-262.311,193.169-265.859Z" transform="translate(-95.884 289.962)" fill="#fff"/>
      <path id="Path_38" data-name="Path 38" d="M75.236-257.664c1.93-1.89,2.924-4.647,2.954-8.2v-23.416a.171.171,0,0,0-.171-.171H71.19a.171.171,0,0,0-.171.171v23.391a6.835,6.835,0,0,1-.895,3.907c-.568.763-1.647,1.15-3.207,1.15a3.847,3.847,0,0,1-3.232-1.163A6.856,6.856,0,0,1,62.79-266v-23.276a.171.171,0,0,0-.171-.171H55.742a.171.171,0,0,0-.171.171v23.253c0,3.608.983,6.409,2.92,8.322s4.771,2.883,8.425,2.883C70.508-254.817,73.308-255.774,75.236-257.664Z" transform="translate(-33.455 289.962)" fill="#fff"/>
      <path id="Path_39" data-name="Path 39" d="M7.352-255.281h6.829a.171.171,0,0,0,.171-.171v-13.626H24.8a.171.171,0,0,0,.171-.171v-5.668a.171.171,0,0,0-.171-.171H14.353v-8.322H26.075a.171.171,0,0,0,.171-.171v-5.692a.171.171,0,0,0-.171-.171H7.352a.171.171,0,0,0-.171.171v33.822A.171.171,0,0,0,7.352-255.281Z" transform="translate(-7.181 289.962)" fill="#fff"/>
    </g>
    <rect id="Rectangle_19" data-name="Rectangle 19" width="365.627" height="7.868" transform="translate(-1146 -380.018)" fill="#70c390"/>
    <g id="Group_164" data-name="Group 164" transform="translate(-1113.901 -359.229)">
      <path id="Path_40" data-name="Path 40" d="M94.356-133.263a9.365,9.365,0,0,1-8.514,5.4,9.612,9.612,0,0,1-9.609-9.472,9.5,9.5,0,0,1,9.535-9.327,9.47,9.47,0,0,1,8.687,5.518H90.573a6.355,6.355,0,0,0-4.929-2.393,6.237,6.237,0,0,0-6,6.25,6.35,6.35,0,0,0,6.124,6.3,6.085,6.085,0,0,0,4.629-2.271Z" transform="translate(-76.234 146.667)" fill="#fff"/>
      <path id="Path_41" data-name="Path 41" d="M124.627-130.923h1.718c.672,0,3.436,0,3.436-2.368,0-.733-.373-2.418-3.361-2.418h-1.793Zm0-7.911h1.121c.8,0,2.937,0,2.937-1.954,0-1.074-.7-1.952-2.638-1.952h-1.42Zm-3.41-7.032h3.634c2.041,0,4.082,0,5.675,1.392a4.7,4.7,0,0,1,1.569,3.369,3.669,3.669,0,0,1-2.067,3.443,4.369,4.369,0,0,1,3.162,4.493,5.068,5.068,0,0,1-2.29,4.3,9.084,9.084,0,0,1-4.755,1.074h-4.929Z" transform="translate(-100.658 146.232)" fill="#fff"/>
    </g>
    <rect id="Rectangle_20" data-name="Rectangle 20" width="1.842" height="18.067" transform="translate(-1078.508 -358.862)" fill="#fff"/>
    <path id="Path_938" data-name="Path 938" d="M179.291-145.866v14.991h-.051l-10.281-14.991H166.47V-127.8h1.842v-15.894h.051L179.291-127.8h1.841v-18.067Z" transform="translate(-1239.13 -212.997)" fill="#fff"/>
    <g id="Group_165" data-name="Group 165" transform="translate(-1055.311 -359.18)">
      <path id="Path_43" data-name="Path 43" d="M206.271-133.23a3.632,3.632,0,0,0,3.834,3.735,3.625,3.625,0,0,0,3.708-3.589c0-2.783-2.862-3.492-4.107-3.857-1.668-.488-4.779-1.172-4.779-4.761a4.915,4.915,0,0,1,5.177-4.858,4.933,4.933,0,0,1,5.1,4.907h-1.842a3.289,3.289,0,0,0-3.261-3.272,3.185,3.185,0,0,0-3.336,3.15c0,2.2,1.966,2.71,4.382,3.394,4.48,1.172,4.5,4.615,4.5,5.2v.024a5.4,5.4,0,0,1-5.551,5.3c-2.39,0-5.6-1.392-5.675-5.371Z" transform="translate(-204.429 146.56)" fill="#fff"/>
    </g>
    <rect id="Rectangle_21" data-name="Rectangle 21" width="1.842" height="18.067" transform="translate(-1041.325 -358.862)" fill="#fff"/>
    <g id="Group_166" data-name="Group 166" transform="translate(-1036.347 -359.179)">
      <path id="Path_44" data-name="Path 44" d="M265.54-136.476c-.423,5.371-5.2,8.618-9.733,8.618-5.5,0-9.883-4.37-9.883-9.351a9.627,9.627,0,0,1,9.858-9.35c4.878,0,7.99,3.3,8.712,5.127h-2.141a7.691,7.691,0,0,0-6.547-3.492,7.915,7.915,0,0,0-8.041,7.74,7.893,7.893,0,0,0,8.115,7.689,7.783,7.783,0,0,0,7.443-5.346h-10.28v-1.635Z" transform="translate(-245.924 146.559)" fill="#fff"/>
    </g>
    <path id="Path_939" data-name="Path 939" d="M307.295-145.866v7.96H297.76v-7.96h-1.842V-127.8h1.842v-8.472h9.535v8.472h1.842v-18.067Z" transform="translate(-1309.416 -212.997)" fill="#fff"/>
    <path id="Path_940" data-name="Path 940" d="M329.847-145.866v1.636h4.231V-127.8h1.841V-144.23h4.207v-1.636Z" transform="translate(-1327.838 -212.997)" fill="#fff"/>
    <g id="Group_167" data-name="Group 167" transform="translate(-1145.751 -359.18)">
      <path id="Path_47" data-name="Path 47" d="M356.3-133.23a3.632,3.632,0,0,0,3.834,3.735,3.625,3.625,0,0,0,3.708-3.589c0-2.783-2.862-3.492-4.107-3.857-1.668-.488-4.779-1.172-4.779-4.761a4.916,4.916,0,0,1,5.178-4.858,4.933,4.933,0,0,1,5.1,4.907H363.4a3.289,3.289,0,0,0-3.261-3.272,3.184,3.184,0,0,0-3.335,3.15c0,2.2,1.966,2.71,4.38,3.394,4.481,1.172,4.505,4.615,4.505,5.2v.024a5.4,5.4,0,0,1-5.551,5.3c-2.39,0-5.6-1.392-5.675-5.371Z" transform="translate(-195.452 146.56)" fill="#fff"/>
      <path id="Path_48" data-name="Path 48" d="M54.837-138.174v-4.542a3.369,3.369,0,0,0-3.4-3.337h-4.87v7.879Z" transform="translate(-28.275 146.285)" fill="#fff"/>
      <path id="Path_49" data-name="Path 49" d="M54.837-119.435v-5.037H46.566v8.374h4.87a3.369,3.369,0,0,0,3.4-3.336" transform="translate(-28.275 134.567)" fill="#fff"/>
      <path id="Path_50" data-name="Path 50" d="M15.195-136.19v-2h8.06v-7.866H9.946a3.369,3.369,0,0,0-3.4,3.336v11.564a3.369,3.369,0,0,0,3.4,3.337H23.255v-8.375Z" transform="translate(-6.545 146.284)" fill="#fff"/>
    </g>
  </g>
</svg>
