<svg xmlns="http://www.w3.org/2000/svg" width="48.064" height="63.029" viewBox="0 0 48.064 63.029"><g transform="translate(0 0)"><path d="M552.075,546.131v54.3H512.211v-7.1h33.3v-47.2Z" transform="translate(-505.011 -538.397)" fill="none" stroke="#fff" stroke-miterlimit="10" stroke-width="2"/><g transform="translate(0)"><g transform="translate(0 0)"><path d="M533.128,553.219H505c-.38,0-.769-.024-1.148,0-.016,0-.033,0-.049,0l.63.63v-6.768l-.63.63H531.93c.38,0,.769.024,1.148,0,.016,0,.033,0,.049,0l-.63-.63v6.768a.631.631,0,0,0,1.26,0v-6.768a.639.639,0,0,0-.63-.63H507.422c-1.189,0-2.383-.036-3.572,0H503.8a.639.639,0,0,0-.63.63v6.768a.639.639,0,0,0,.63.63h25.706c1.189,0,2.383.036,3.572,0h.049A.631.631,0,0,0,533.128,553.219Z" transform="translate(-497.87 -538.637)" fill="#fff"/><path d="M477.941,509.951v52.091c0,.7-.012,1.408,0,2.112,0,.031,0,.062,0,.092a.639.639,0,0,0,.63.63h38.239c.518,0,1.038.012,1.557,0h.068a.639.639,0,0,0,.63-.63V512.155c0-.7.012-1.408,0-2.112,0-.031,0-.062,0-.092a.639.639,0,0,0-.63-.63H480.2c-.518,0-1.038-.012-1.557,0h-.068a.631.631,0,0,0,0,1.26h38.239c.516,0,1.04.025,1.557,0,.022,0,.045,0,.068,0l-.63-.63v52.091c0,.7-.025,1.41,0,2.112,0,.031,0,.062,0,.092l.63-.63H480.2c-.517,0-1.04-.025-1.557,0-.022,0-.045,0-.068,0l.63.63V512.155c0-.7.012-1.408,0-2.112,0-.031,0-.062,0-.092A.631.631,0,0,0,477.941,509.951Z" transform="translate(-477.936 -509.315)" fill="#fff"/></g></g><g transform="translate(5.931 8.444)"><rect width="29.327" height="6.768" transform="translate(0 0)" fill="none" stroke="#fff" stroke-miterlimit="10" stroke-width="2"/></g><line x2="29.336" transform="translate(5.899 21.945)" fill="none" stroke="#fff" stroke-miterlimit="10" stroke-width="2"/><line x2="29.336" transform="translate(5.899 27.429)" fill="none" stroke="#fff" stroke-miterlimit="10" stroke-width="2"/><line x2="29.336" transform="translate(5.899 32.895)" fill="none" stroke="#fff" stroke-miterlimit="10" stroke-width="2"/><line x2="29.336" transform="translate(5.899 38.38)" fill="none" stroke="#fff" stroke-miterlimit="10" stroke-width="2"/></g></svg>