<svg xmlns="http://www.w3.org/2000/svg" width="26.501" height="17.037" viewBox="0 0 26.501 17.037">
  <path id="Icon_ionic-md-people" data-name="Icon ionic-md-people" d="M20.319,14.974a3.55,3.55,0,1,0-3.614-3.549A3.593,3.593,0,0,0,20.319,14.974Zm-9.637,0a3.55,3.55,0,1,0-3.614-3.549A3.593,3.593,0,0,0,10.682,14.974Zm0,2.6c-2.831,0-8.432,1.36-8.432,4.141v3.194H19.287V21.717C19.287,18.937,13.513,17.576,10.682,17.576Zm9.637.651a6.428,6.428,0,0,0-1.032.059c1.386,1.006,1.893,1.656,1.893,3.431v3.194h7.572V21.717C28.751,18.937,23.15,18.227,20.319,18.227Z" transform="translate(-2.25 -7.875)" fill="#d772ae"/>
</svg>
