<svg xmlns="http://www.w3.org/2000/svg" width="81.99" height="51.79" viewBox="0 0 81.99 51.79">
  <path id="Icon_ionic-md-people" data-name="Icon ionic-md-people" d="M58.152,29.454a11.023,11.023,0,0,0,11.181-10.79,11.188,11.188,0,0,0-22.361,0A11.023,11.023,0,0,0,58.152,29.454Zm-29.814,0a11.023,11.023,0,0,0,11.18-10.79,11.023,11.023,0,0,0-11.18-10.79,11.023,11.023,0,0,0-11.181,10.79A11.023,11.023,0,0,0,28.338,29.454Zm0,7.912C19.579,37.366,2.25,41.5,2.25,49.954v9.711H54.958V49.954C54.958,41.5,37.1,37.366,28.338,37.366Zm29.814,1.979a20.237,20.237,0,0,0-3.194.179c4.287,3.057,5.856,5.035,5.856,10.43v9.711H84.24V49.954C84.24,41.5,66.911,39.345,58.152,39.345Z" transform="translate(-2.25 -7.875)" fill="#4cabcc"/>
</svg>
