<svg xmlns="http://www.w3.org/2000/svg" width="70.995" height="61.783" viewBox="0 0 70.995 61.783"><g transform="translate(1 1)"><g transform="translate(19.177)"><circle cx="15.321" cy="15.321" r="15.321" transform="translate(0 0)" fill="none" stroke="#fff" stroke-miterlimit="10" stroke-width="2"/><g transform="translate(7.776 5.011)"><circle cx="5.03" cy="5.03" r="5.03" transform="translate(2.515)" fill="none" stroke="#fff" stroke-miterlimit="10" stroke-width="2"/><path d="M-239.426,606.111a7.545,7.545,0,0,0-7.545-7.545,7.545,7.545,0,0,0-7.545,7.545Z" transform="translate(254.516 -588.272)" fill="none" stroke="#fff" stroke-miterlimit="10" stroke-width="2"/></g></g><g transform="translate(0 41.944)"><g transform="translate(0 0)"><circle cx="5.03" cy="5.03" r="5.03" transform="translate(2.515)" fill="none" stroke="#fff" stroke-miterlimit="10" stroke-width="2"/><path d="M-350.119,757.791a7.545,7.545,0,0,0-7.545-7.545,7.545,7.545,0,0,0-7.545,7.545Z" transform="translate(365.209 -739.952)" fill="none" stroke="#fff" stroke-miterlimit="10" stroke-width="2"/></g><g transform="translate(26.953 0)"><circle cx="5.03" cy="5.03" r="5.03" transform="translate(2.515)" fill="none" stroke="#fff" stroke-miterlimit="10" stroke-width="2"/><path d="M-239.426,757.791a7.545,7.545,0,0,0-7.545-7.545,7.545,7.545,0,0,0-7.545,7.545Z" transform="translate(254.516 -739.952)" fill="none" stroke="#fff" stroke-miterlimit="10" stroke-width="2"/></g><g transform="translate(53.906 0)"><circle cx="5.03" cy="5.03" r="5.03" transform="translate(2.515)" fill="none" stroke="#fff" stroke-miterlimit="10" stroke-width="2"/><path d="M-128.732,757.791a7.545,7.545,0,0,0-7.545-7.545,7.545,7.545,0,0,0-7.545,7.545Z" transform="translate(143.822 -739.952)" fill="none" stroke="#fff" stroke-miterlimit="10" stroke-width="2"/></g></g><g transform="translate(15.26 32.381)"><line y1="6.209" x2="6.209" transform="translate(0 0)" fill="none" stroke="#fff" stroke-miterlimit="10" stroke-width="2"/><line x1="6.209" y1="6.209" transform="translate(32.266 0)" fill="none" stroke="#fff" stroke-miterlimit="10" stroke-width="2"/></g><line y1="3.425" transform="translate(34.498 34.285)" fill="none" stroke="#fff" stroke-miterlimit="10" stroke-width="2"/></g></svg>