<svg xmlns="http://www.w3.org/2000/svg" width="49.486" height="84.446" viewBox="0 0 49.486 84.446"><g transform="translate(1.038 1)"><g transform="translate(0)"><g transform="translate(3.404 60.543)"><line x2="16.046" transform="translate(24.556)" fill="none" stroke="#fff" stroke-miterlimit="10" stroke-width="2"/><line x2="15.558" fill="none" stroke="#fff" stroke-miterlimit="10" stroke-width="2"/></g><g transform="translate(0 0)"><g transform="translate(15.544 60.315)"><path d="M156.786,774.795v.972h-6.391v-2.892" transform="translate(-150.395 -762.362)" fill="none" stroke="#fff" stroke-miterlimit="10" stroke-width="2"/><line y1="10.514" transform="translate(9.93)" fill="none" stroke="#fff" stroke-miterlimit="10" stroke-width="2"/><path d="M195.817,772.875v2.892h-6.391v-.972" transform="translate(-179.496 -762.362)" fill="none" stroke="#fff" stroke-miterlimit="10" stroke-width="2"/></g><path d="M132.793,560.482l-10.976,1.99V565.3h-6.946v1.314a1.844,1.844,0,0,1-.1.606,1.869,1.869,0,0,1-3.091.715,1.863,1.863,0,0,1-.549-1.321V565.3h-6.946v-2.828l-10.977-1.99a4.759,4.759,0,0,1-3.2-7.181l11.65-18.875,2.49-21.275h.037a31.311,31.311,0,0,1,4.421-15.9l.164-.27a4.824,4.824,0,0,1,8.467,0l.165.274a31.3,31.3,0,0,1,4.412,15.894h.037l2.49,21.275,11.65,18.875A4.759,4.759,0,0,1,132.793,560.482Z" transform="translate(-89.295 -494.471)" fill="none" stroke="#fff" stroke-miterlimit="10" stroke-width="2"/><line y1="2.209" transform="translate(21.834 68.619)" fill="none" stroke="#fff" stroke-miterlimit="10" stroke-width="2"/><path d="M175.119,730.426v-1.974a1.871,1.871,0,0,1,3.64-.606" transform="translate(-153.285 -667.531)" fill="none" stroke="#fff" stroke-miterlimit="10" stroke-width="2"/><g transform="translate(17.637 8.583)"><path d="M204.667,558.991a16.006,16.006,0,0,1,.42,3.641" transform="translate(-192.952 -551.159)" fill="none" stroke="#fff" stroke-miterlimit="10" stroke-width="2"/><path d="M197.772,541.046a16.44,16.44,0,0,1,1.193,2.556" transform="translate(-187.812 -537.78)" fill="none" stroke="#fff" stroke-miterlimit="10" stroke-width="2"/><path d="M171.03,529.671a3.628,3.628,0,0,1,5.826,0" transform="translate(-167.873 -528.207)" fill="none" stroke="#fff" stroke-miterlimit="10" stroke-width="2"/><path d="M162.469,543.58A16.464,16.464,0,0,1,163.674,541" transform="translate(-161.49 -537.746)" fill="none" stroke="#fff" stroke-miterlimit="10" stroke-width="2"/><path d="M158.621,562.655a15.993,15.993,0,0,1,.42-3.641" transform="translate(-158.621 -551.176)" fill="none" stroke="#fff" stroke-miterlimit="10" stroke-width="2"/></g><g transform="translate(3.404 60.543)"><line x2="16.046" transform="translate(24.556)" fill="none" stroke="#fff" stroke-miterlimit="10" stroke-width="2"/><line x2="15.558" fill="none" stroke="#fff" stroke-miterlimit="10" stroke-width="2"/></g></g></g><line y2="16.455" transform="translate(9.686 64.359)" fill="none" stroke="#fff" stroke-miterlimit="10" stroke-width="2"/><line y2="4.607" transform="translate(16.926 78.839)" fill="none" stroke="#fff" stroke-miterlimit="10" stroke-width="2"/><line y2="7.46" transform="translate(37.331 64.139)" fill="none" stroke="#fff" stroke-miterlimit="10" stroke-width="2"/></g></svg>