<svg xmlns="http://www.w3.org/2000/svg" width="52.827" height="67.995" viewBox="0 0 52.827 67.995"><g transform="translate(0 1.07)"><path d="M931.062,595.827l.5,1.08-.517-1.046Z" transform="translate(-921.64 -577.229)" fill="#fff" stroke="#fff" stroke-miterlimit="10" stroke-width="2"/><path d="M933.331,600.589l0,0,0-.006,0,0Z" transform="translate(-923.393 -580.881)" fill="#fff" stroke="#fff" stroke-miterlimit="10" stroke-width="2"/><path d="M1036.143,589.28l-.139-.165a33.511,33.511,0,0,0-16.021-19.488c-.287-.159-.571-.311-.852-.452l0,0a34.3,34.3,0,0,0-6.024-2.435,11.957,11.957,0,0,0,.664-3.521l.382.073-.111-.133,7.4,1.8a8.232,8.232,0,0,1,5.176,3.864,25.191,25.191,0,0,0,5.194,6.6C1035.614,578.528,1036.708,586.036,1036.143,589.28Z" transform="translate(-984.685 -552.13)" fill="none" stroke="#fff" stroke-miterlimit="10" stroke-width="2"/><path d="M955.388,556.919a15.4,15.4,0,0,0-1.155,4.874l-4,1.33-2.875-3.517.125-.206-.165.052c2.7-3.3,7.367-2.6,7.855-2.511h0Z" transform="translate(-934.146 -547.261)" fill="none" stroke="#fff" stroke-miterlimit="10" stroke-width="2"/><g transform="translate(0 3.784)"><g transform="translate(0 0)"><path d="M940.521,640.269l-.113,0c-.117,0,.073.011.074.011a.51.51,0,0,1-.178-.042c-.033-.01-.069-.029-.1-.036.01,0,.16.079.068.026-.063-.035-.123-.07-.184-.109-.107-.07.1.1.043.032-.019-.021-.045-.039-.065-.06l-.05-.05c-.044-.048-.076-.13.018.032-.03-.051-.068-.1-.1-.149-.012-.021-.022-.042-.033-.063-.062-.11.053.169.007.017-.017-.059-.037-.116-.049-.175s.012-.111,0,.056c0-.03-.006-.063-.007-.094,0-.063,0-.126.005-.189.005-.094-.036.188-.006.056.008-.036.016-.071.025-.107s.022-.069.034-.1c.019-.06.053-.048-.029.067.034-.047.054-.107.086-.157.016-.025.035-.048.05-.073.045-.075-.121.135-.031.044.047-.048.111-.1.152-.148-.083.1-.11.079-.057.044.03-.02.059-.04.089-.058l.062-.035c.062-.033.141-.034-.036.01.058-.014.114-.041.172-.056l.072-.016c.13-.029-.185.015-.019,0a1.348,1.348,0,0,1,.171,0c.065,0,.16.042-.036-.009.023.006.048.009.072.014.06.013.117.033.175.051.129.041-.152-.08-.034-.013.031.018.063.033.094.051s.05.032.075.048c.063.04.051.082-.042-.034.035.044.09.08.128.122.017.019.086.112.014.011s0,0,.009.015c.038.057.062.135.1.187-.006-.007-.061-.169-.029-.067.011.035.024.068.034.1s.042.22.024.088,0,.077,0,.114,0,.063,0,.094c0,.136.034-.16,0-.037-.017.071-.036.141-.059.211-.04.124.069-.124.021-.05-.022.035-.038.075-.059.11-.012.02-.025.04-.038.06-.1.15.082-.083,0,0l-.125.125c-.1.094.142-.094.03-.021-.03.019-.059.04-.09.058s-.063.034-.094.051c-.106.059.159-.053.034-.013-.07.022-.139.041-.211.059s-.086-.016.075-.008c-.049,0-.1.008-.151.008a.7.7,0,1,0,0,1.391,2.092,2.092,0,0,0,1.942-1.383,2.05,2.05,0,0,0-.592-2.222,2.055,2.055,0,1,0-1.349,3.605.7.7,0,0,0,0-1.391Z" transform="translate(-927.35 -613.068)" fill="#fff"/><path d="M943.246,567.716a36.079,36.079,0,0,0-6.886-14.187A34.5,34.5,0,0,0,927,545.516q-.32-.188-.644-.37a5.409,5.409,0,0,0-.9-.485c-.3-.1.128.07-.119-.043-.132-.06-.264-.154-.4-.221q-.267-.135-.536-.265-.57-.275-1.149-.531a34.876,34.876,0,0,0-4.178-1.544l.486.855a13.047,13.047,0,0,0-.121-8.681,6.442,6.442,0,0,0-.8-1.713,1.58,1.58,0,0,0-1.337-.611,4.761,4.761,0,0,0-1.492.474,8.2,8.2,0,0,0-2.175,1.413,10.772,10.772,0,0,0-2.729,4.136,14.764,14.764,0,0,0-1.041,4.721l.51-.67L906.7,543.2a34.973,34.973,0,0,0-3.422,1.2,7.978,7.978,0,0,0-1.954,1.278,7.5,7.5,0,0,0-.79.806c-.13.154-.253.313-.374.474q-.071.1-.139.192c-.024.035-.254.328-.106.18a.716.716,0,0,0-.109.843,8.11,8.11,0,0,1,.838,1.432,1.708,1.708,0,0,1-1.308,2.09l.677.179-1.048-1.252a.7.7,0,0,0-1.092.141c-1.958,3.472-3.75,7.032-5.488,10.618q-.437.9-.875,1.8c-.214.44-.452.874-.633,1.329a6.665,6.665,0,0,0-.4,2.372,8.362,8.362,0,0,0,1.865,5.487,6.759,6.759,0,0,0,6.511,1.919,13.6,13.6,0,0,0,4.461-1.74,27.1,27.1,0,0,1,4.382-2.31,12.98,12.98,0,0,1,1.382-.409l-.855-.855a.857.857,0,0,0,0,.726c.088.192.165.343.232.515a10.089,10.089,0,0,1,.412,1.338,14,14,0,0,1,.351,2.921,18.845,18.845,0,0,1-.836,5.975,34.134,34.134,0,0,0-1.284,5.188,16.885,16.885,0,0,0,.351,6.969,5.157,5.157,0,0,0,.665,1.707,1.812,1.812,0,0,0,1.309.719,1.865,1.865,0,0,0,1.324-.449l.583-.453,3.086-2.4,4.923-3.825,5.936-4.613,6.142-4.773,5.466-4.247,3.984-3.1c.556-.432,1.126-.852,1.671-1.3a2.188,2.188,0,0,0,.714-2.171.7.7,0,0,0-1.341.37c.1.46-.247.733-.573.986l-.9.7-3.473,2.7-5.089,3.955L925.983,581l-5.955,4.627-5.2,4.039-3.7,2.876-1.037.806-.27.21c-.08.062-.148.062-.016.01-.176.07-.169.108-.317.088-.12-.016.09.018-.028-.008a.64.64,0,0,1-.1-.031c.053.022-.1-.074-.09-.069a.31.31,0,0,1-.093-.116c-.03-.061-.086-.228-.123-.332q-.157-.451-.285-.911a14.034,14.034,0,0,1-.5-3.4,20.319,20.319,0,0,1,.817-5.854,41.134,41.134,0,0,0,1.3-5.1,18.49,18.49,0,0,0-.1-6.242,10.48,10.48,0,0,0-.873-2.586l.07.536.071-.19c.2-.523-.382-.968-.855-.855a17.351,17.351,0,0,0-4.806,2.091,18.972,18.972,0,0,1-4,2.021c-.365.112-.735.21-1.108.288a7,7,0,0,1-.911.141,7.9,7.9,0,0,1-.935.032q-.211-.006-.422-.024c-.073-.007-.146-.015-.219-.023.145.017-.081-.013-.12-.02a5.737,5.737,0,0,1-.769-.187c-.116-.037-.229-.081-.344-.122s.084.043-.037-.015c-.065-.031-.132-.06-.2-.092a5.124,5.124,0,0,1-.616-.361c-.043-.029-.085-.06-.128-.09-.142-.1.05.047-.044-.032s-.184-.152-.272-.234a5.489,5.489,0,0,1-.474-.494c-.038-.045-.075-.091-.112-.136-.084-.1.06.089-.014-.019s-.137-.191-.2-.289a6.51,6.51,0,0,1-.341-.587q-.075-.145-.143-.294c-.009-.019-.086-.194-.046-.1s-.03-.075-.041-.1a8.1,8.1,0,0,1-.388-1.313q-.032-.156-.059-.314c-.008-.048-.016-.1-.023-.145-.029-.178,0,.042-.008-.055-.022-.214-.045-.427-.055-.641a7.953,7.953,0,0,1,.031-1.217c.005-.049.013-.1.017-.148-.008.1-.018.119,0,.019s.031-.188.049-.282a5.3,5.3,0,0,1,.131-.524q.032-.1.069-.206c.014-.038.03-.076.044-.114.049-.139-.072.14,0,.01.1-.182.182-.37.273-.554.258-.523.511-1.048.765-1.573,1.611-3.328,3.251-6.641,5.029-9.884q.395-.72.8-1.435l-1.092.141,1.048,1.252a.692.692,0,0,0,.676.179,3.108,3.108,0,0,0,2.376-3.207,3.355,3.355,0,0,0-.578-1.6,7.951,7.951,0,0,1-.5-.757l-.109.843a7.509,7.509,0,0,0,.5-.7,7.073,7.073,0,0,1,.7-.763,6.719,6.719,0,0,1,1.541-1.086,14.642,14.642,0,0,1,2.109-.782l3.257-1.085,1.737-.578a.719.719,0,0,0,.51-.67c0-.087.01-.174.018-.26s.017-.186.026-.279c.006-.057.013-.115.019-.172.005-.042.01-.084.016-.126-.01.078,0,.029,0-.02a16.1,16.1,0,0,1,.511-2.339,10.691,10.691,0,0,1,2.08-3.98,7.223,7.223,0,0,1,1.6-1.38,6.835,6.835,0,0,1,.989-.516c.195-.081.395-.15.6-.212.156-.049.268-.113.378-.051a1.647,1.647,0,0,1,.26.459c.049.1.1.205.141.309.015.035.072.169.028.065q.052.125.1.251a12.858,12.858,0,0,1,.6,2.019,11.525,11.525,0,0,1-.4,6.123.7.7,0,0,0,.485.855,32.334,32.334,0,0,1,3.44,1.228c.671.283,1.333.591,1.984.917.108.054.217.109.325.164l-.015-.025q-.072-.111.126.083c.133.083.285.146.424.219q.391.208.778.427a34.822,34.822,0,0,1,4.512,3.033,32.721,32.721,0,0,1,8.417,10.108,36.178,36.178,0,0,1,3.207,8.533C942.117,568.955,943.458,568.587,943.246,567.716Z" transform="translate(-890.471 -531.904)" fill="#fff"/></g></g><path d="M922.036,589.824a2.393,2.393,0,0,1-.41,1.338,2.344,2.344,0,0,1-1.464.995l-1.048-1.252-.779-.933a4.268,4.268,0,0,1,.256-5.76l.513-.515,1.411,2.846.517,1.046.012.022,0,.006,0,0,.594.9A2.362,2.362,0,0,1,922.036,589.824Z" transform="translate(-911.112 -567.908)" fill="none" stroke="#fff" stroke-miterlimit="10" stroke-width="2"/><path d="M933.331,600.589l0,0,0-.006,0,0Z" transform="translate(-923.393 -580.881)" fill="#fff" stroke="#fff" stroke-miterlimit="10" stroke-width="2"/><path d="M911.391,531.438l-2.225.743a7.409,7.409,0,0,0-3.925,3.1l0,0,0,0-.012-.022-.5-1.08-7.847-16.988A1.126,1.126,0,0,1,898.768,516l9.747,11.925Z" transform="translate(-895.301 -515.576)" fill="none" stroke="#fff" stroke-miterlimit="10" stroke-width="2"/><path d="M933.329,600.585l0,0,0-.006Z" transform="translate(-923.393 -580.881)" fill="#fff" stroke="#fff" stroke-miterlimit="10" stroke-width="2"/><path d="M968.628,664.858c4.161-1.387,11.493-.991,13.475-8.521" transform="translate(-950.515 -623.715)" fill="none" stroke="#fff" stroke-miterlimit="10" stroke-width="2"/></g></svg>